<svg width="388" height="59" viewBox="0 0 388 59" fill="none" xmlns="http://www.w3.org/2000/svg">
<path d="M72.4247 35.6216H77.1432C76.8974 37.8826 76.2503 39.9059 75.2017 41.6917C74.1532 43.4775 72.6705 44.8947 70.7536 45.9433C68.8367 46.9754 66.4447 47.4915 63.5776 47.4915C61.4805 47.4915 59.5718 47.0983 57.8516 46.3119C56.1477 45.5255 54.6813 44.4114 53.4526 42.9697C52.2238 41.5115 51.2736 39.7667 50.6018 37.7351C49.9465 35.6872 49.6188 33.4099 49.6188 30.9032V27.3398C49.6188 24.8331 49.9465 22.564 50.6018 20.5324C51.2736 18.4845 52.232 16.7314 53.4772 15.2733C54.7387 13.8152 56.2542 12.6929 58.0236 11.9065C59.793 11.1201 61.7836 10.7269 63.9954 10.7269C66.6987 10.7269 68.9842 11.2348 70.8519 12.2505C72.7196 13.2663 74.1695 14.6753 75.2017 16.4775C76.2503 18.2633 76.8974 20.3358 77.1432 22.695H72.4247C72.1953 21.0239 71.7694 19.5904 71.1468 18.3944C70.5242 17.182 69.6395 16.2481 68.4927 15.5928C67.3458 14.9374 65.8467 14.6098 63.9954 14.6098C62.4062 14.6098 61.0054 14.9129 59.793 15.5191C58.597 16.1252 57.5894 16.9854 56.7702 18.0995C55.9675 19.2135 55.3613 20.5488 54.9517 22.1052C54.5421 23.6617 54.3373 25.3901 54.3373 27.2906V30.9032C54.3373 32.6562 54.5175 34.3028 54.8779 35.8428C55.2548 37.3829 55.82 38.7345 56.5736 39.8977C57.3273 41.061 58.2857 41.9784 59.4489 42.6502C60.6122 43.3055 61.9884 43.6332 63.5776 43.6332C65.5928 43.6332 67.1984 43.3137 68.3944 42.6747C69.5904 42.0358 70.4914 41.1183 71.0976 39.9223C71.7202 38.7263 72.1626 37.2928 72.4247 35.6216ZM105.306 43.1417V47H87.4156V43.1417H105.306ZM88.3495 11.2184V47H83.6065V11.2184H88.3495ZM115.825 11.2184V47H111.082V11.2184H115.825ZM146.052 35.6216H150.771C150.525 37.8826 149.878 39.9059 148.829 41.6917C147.781 43.4775 146.298 44.8947 144.381 45.9433C142.464 46.9754 140.072 47.4915 137.205 47.4915C135.108 47.4915 133.199 47.0983 131.479 46.3119C129.775 45.5255 128.309 44.4114 127.08 42.9697C125.851 41.5115 124.901 39.7667 124.229 37.7351C123.574 35.6872 123.246 33.4099 123.246 30.9032V27.3398C123.246 24.8331 123.574 22.564 124.229 20.5324C124.901 18.4845 125.86 16.7314 127.105 15.2733C128.366 13.8152 129.882 12.6929 131.651 11.9065C133.421 11.1201 135.411 10.7269 137.623 10.7269C140.326 10.7269 142.612 11.2348 144.479 12.2505C146.347 13.2663 147.797 14.6753 148.829 16.4775C149.878 18.2633 150.525 20.3358 150.771 22.695H146.052C145.823 21.0239 145.397 19.5904 144.774 18.3944C144.152 17.182 143.267 16.2481 142.12 15.5928C140.973 14.9374 139.474 14.6098 137.623 14.6098C136.034 14.6098 134.633 14.9129 133.421 15.5191C132.225 16.1252 131.217 16.9854 130.398 18.0995C129.595 19.2135 128.989 20.5488 128.579 22.1052C128.17 23.6617 127.965 25.3901 127.965 27.2906V30.9032C127.965 32.6562 128.145 34.3028 128.506 35.8428C128.882 37.3829 129.448 38.7345 130.201 39.8977C130.955 41.061 131.913 41.9784 133.077 42.6502C134.24 43.3055 135.616 43.6332 137.205 43.6332C139.22 43.6332 140.826 43.3137 142.022 42.6747C143.218 42.0358 144.119 41.1183 144.725 39.9223C145.348 38.7263 145.79 37.2928 146.052 35.6216ZM161.977 11.2184V47H157.234V11.2184H161.977ZM183.579 11.2184L168.711 27.905L160.355 36.5801L159.569 31.5176L165.86 24.5873L177.877 11.2184H183.579ZM179.008 47L165.762 29.5515L168.588 25.7915L184.66 47H179.008ZM202.01 31.7879H192.794L192.745 26.1356H200.216C201.56 26.1356 202.633 25.9881 203.436 25.6932C204.238 25.3819 204.82 24.9314 205.18 24.3416C205.557 23.7518 205.746 23.0145 205.746 22.1298C205.746 21.114 205.557 20.2949 205.18 19.6723C204.804 19.0497 204.206 18.5992 203.386 18.3206C202.584 18.0257 201.543 17.8783 200.265 17.8783H196.038V47H187.412V11.2184H200.265C202.477 11.2184 204.451 11.4232 206.188 11.8328C207.925 12.226 209.399 12.8322 210.612 13.6513C211.84 14.4705 212.774 15.5027 213.413 16.7478C214.052 17.9766 214.372 19.4265 214.372 21.0976C214.372 22.5558 214.06 23.9238 213.438 25.2017C212.815 26.4796 211.775 27.52 210.317 28.3228C208.875 29.1092 206.901 29.5188 204.394 29.5515L202.01 31.7879ZM201.666 47H190.706L193.655 40.3647H201.666C202.846 40.3647 203.788 40.1845 204.492 39.824C205.213 39.4472 205.729 38.9557 206.041 38.3495C206.368 37.7269 206.532 37.0388 206.532 36.2852C206.532 35.3677 206.376 34.5731 206.065 33.9014C205.77 33.2296 205.295 32.7136 204.64 32.3531C203.984 31.9763 203.108 31.7879 202.01 31.7879H194.76L194.81 26.1356H203.485L205.5 28.3965C207.892 28.2982 209.784 28.6341 211.177 29.4041C212.586 30.1741 213.593 31.1899 214.2 32.4514C214.806 33.713 215.109 35.0318 215.109 36.4081C215.109 38.7509 214.601 40.7087 213.585 42.2815C212.586 43.8544 211.087 45.034 209.088 45.8204C207.089 46.6068 204.615 47 201.666 47ZM244.525 40.3647V47H225.455V40.3647H244.525ZM228.527 11.2184V47H219.901V11.2184H228.527ZM242.068 25.4229V31.837H225.455V25.4229H242.068ZM244.599 11.2184V17.8783H225.455V11.2184H244.599ZM263.227 18.7384L254.503 47H245.238L258.386 11.2184H264.259L263.227 18.7384ZM270.452 47L261.704 18.7384L260.573 11.2184H266.52L279.742 47H270.452ZM270.108 33.6556V40.3155H251.751V33.6556H270.108ZM282.371 11.2184H296.453C299.205 11.2184 301.597 11.628 303.629 12.4471C305.661 13.2663 307.225 14.4787 308.323 16.0843C309.437 17.6899 309.994 19.6723 309.994 22.0315C309.994 24.0794 309.675 25.7915 309.036 27.1677C308.397 28.544 307.504 29.6826 306.357 30.5837C305.226 31.4684 303.908 32.1975 302.4 32.7709L299.574 34.3683H287.753L287.704 27.7084H296.453C297.551 27.7084 298.46 27.5118 299.181 27.1186C299.902 26.7254 300.442 26.1683 300.803 25.4475C301.18 24.7102 301.368 23.8337 301.368 22.8179C301.368 21.7858 301.18 20.901 300.803 20.1638C300.426 19.4265 299.869 18.8613 299.132 18.4681C298.411 18.0749 297.518 17.8783 296.453 17.8783H290.997V47H282.371V11.2184ZM301.958 47L294.045 31.1735L303.187 31.1244L311.198 46.6314V47H301.958ZM326.828 47H318.89L318.939 40.3647H326.828C328.466 40.3647 329.851 39.9715 330.981 39.1851C332.128 38.3986 332.996 37.2272 333.586 35.6708C334.192 34.098 334.496 32.1647 334.496 29.871V28.3228C334.496 26.6025 334.324 25.0952 333.979 23.8009C333.652 22.4902 333.16 21.4007 332.505 20.5324C331.85 19.6477 331.03 18.9842 330.047 18.5418C329.081 18.0995 327.967 17.8783 326.705 17.8783H318.743V11.2184H326.705C329.13 11.2184 331.35 11.6362 333.365 12.4717C335.397 13.2909 337.15 14.4705 338.624 16.0106C340.115 17.5342 341.262 19.3446 342.065 21.4417C342.884 23.5224 343.294 25.8325 343.294 28.3719V29.871C343.294 32.3941 342.884 34.7042 342.065 36.8013C341.262 38.8983 340.123 40.7087 338.649 42.2324C337.174 43.7561 335.429 44.9357 333.414 45.7712C331.415 46.5904 329.22 47 326.828 47ZM323.83 11.2184V47H315.204V11.2184H323.83Z" fill="#FFF8F8"/>
<path d="M34.7736 49.4151V12.8113H0L17.3868 30.1981L7.32076 49.4151H34.7736Z" fill="white"/>
<path d="M353.226 10.9812L353.226 47.585L388 47.585L370.613 30.1982L380.679 10.9812L353.226 10.9812Z" fill="white"/>
</svg>
